<svg version="1" xmlns="http://www.w3.org/2000/svg" width="346.667" height="346.667" viewBox="0 0 260.000000 260.000000"><path d="M78.1 32c-28.3 17.5-52 32.4-52.5 33.2-.8 1.1-.9 21.3-.6 65.9l.5 64.4 11 6.7c6.1 3.8 12.7 7.9 14.7 9.3 2.4 1.5 3.8 1.9 3.9 1.2.1-.7.2-30.4.3-66.1l.1-64.9 36.6-22.9 36.7-22.9 12.1 7.8C147.6 48 156.8 54 161.5 57c4.7 3 15.6 10.1 24.2 15.7l15.8 10.1v46.1c0 39.5-.2 46.3-1.5 47.4-.8.8-12.3 8.3-25.5 16.7-13.2 8.5-28.4 18.2-33.7 21.7-5.4 3.5-10.2 6.3-10.8 6.3-.5 0-10.5-5.9-22.2-13.1-11.7-7.3-23.2-14.2-25.5-15.5l-4.1-2.4.1 19.1.2 19.1 6.7 4.2c3.7 2.2 15.3 9.4 25.8 15.8l19 11.8 30.3-18.7c38.5-23.7 66.2-40.9 71-43.9 3.2-2.1 3.7-2.9 3.7-6.4 0-2.2.1-31.3.1-64.7 0-48.7-.2-60.9-1.3-61.8-.7-.7-11.9-7.8-24.8-15.7-12.9-8-36-22.2-51.2-31.7-15.3-9.4-27.9-17.1-28-17-.2 0-23.4 14.4-51.7 31.9z"/><path d="M103.3 81.3L79.2 96.5v32.7l-.1 32.8 25.1 15c13.8 8.2 25.4 15 25.7 15 .4 0 7-4 14.6-8.9 7.7-5 18.4-11.7 23.8-15.1 8.2-5.2 9.7-6.5 9.8-8.8 0-1.5.1-16.2.2-32.7l.1-30-24.5-15.2c-13.4-8.4-24.8-15.2-25.4-15.2-.5 0-11.9 6.8-25.2 15.2z"/></svg>