<svg version="1" xmlns="http://www.w3.org/2000/svg" width="278.667" height="278.667" viewBox="0 0 209.000000 209.000000"><path d="M94.5 7.5C89.6 10.4 70.4 21.4 52 32S17.8 51.9 17 52.7c-1.3 1.2-1.5 8.3-1.6 51.9v50.6l3.5 2.2c2 1.3 5.9 3.5 8.6 5.1 2.8 1.5 6.9 3.8 9.2 5.2l4.3 2.5.2-51.3.3-51.4L72 49.8c16.9-9.8 31.3-17.6 32.3-17.4.9.3 11.1 5.8 22.5 12.4 11.4 6.6 25 14.4 30.2 17.4l9.5 5.4.3 36.5.2 36.4-9.7 5.7c-5.4 3.1-19.6 11.3-31.7 18.2l-21.8 12.7-6.7-3.9c-3.6-2.2-8.4-5-10.6-6.2-2.2-1.2-8.6-4.9-14.2-8.1-5.6-3.3-10.5-5.9-10.8-5.9-.3 0-.4 6.6-.3 14.6.3 14.3.3 14.5 2.8 16 1.4.8 10.7 6.1 20.8 11.9 10.1 5.8 18.8 10.5 19.4 10.5.6 0 9.5-4.8 19.7-10.8 10.2-5.9 19.4-11.2 20.4-11.7.9-.6 12.3-7.1 25.2-14.5l23.5-13.5V53.2l-23.2-13.4C118.7 10.2 104.3 2 103.9 2.1c-.2 0-4.4 2.5-9.4 5.4z"/><path d="M81.8 67.4L61 79.5v49.4l2.9 2c1.6 1.2 3.1 2.1 3.4 2.1.3 0 8.7 4.7 18.7 10.5l18.1 10.6 21.4-12.3 21.5-12.3-.3-25.3-.2-25.3-5-2.8c-2.7-1.6-12.1-6.9-20.8-12-8.6-5-16.3-9.1-17-9-.6.1-10.5 5.6-21.9 12.3z"/></svg>
