<?xml version="1.0" standalone="no"?>
<!DOCTYPE svg PUBLIC "-//W3C//DTD SVG 20010904//EN"
 "http://www.w3.org/TR/2001/REC-SVG-20010904/DTD/svg10.dtd">
<svg version="1.0" xmlns="http://www.w3.org/2000/svg"
 width="209.000000pt" height="209.000000pt" viewBox="0 0 209.000000 209.000000"
 preserveAspectRatio="xMidYMid meet">
<metadata>
Created by potrace 1.11, written by Peter Selinger 2001-2013
</metadata>
<g transform="translate(0.000000,209.000000) scale(0.100000,-0.100000)"
fill="#000000" stroke="none">
<path d="M945 2015 c-49 -29 -241 -139 -425 -245 -184 -106 -342 -199 -350
-207 -13 -12 -15 -83 -16 -519 l0 -506 35 -22 c20 -13 59 -35 86 -51 28 -15
69 -38 92 -52 l43 -25 2 513 3 514 305 177 c169 98 313 176 323 174 9 -3 111
-58 225 -124 114 -66 250 -144 302 -174 l95 -54 3 -365 2 -364 -97 -57 c-54
-31 -196 -113 -317 -182 l-218 -127 -67 39 c-36 22 -84 50 -106 62 -22 12 -86
49 -142 81 -56 33 -105 59 -108 59 -3 0 -4 -66 -3 -146 3 -143 3 -145 28 -160
14 -8 107 -61 208 -119 101 -58 188 -105 194 -105 6 0 95 48 197 108 102 59
194 112 204 117 9 6 123 71 252 145 l235 135 0 511 0 512 -232 134 c-511 296
-655 378 -659 377 -2 0 -44 -25 -94 -54z"/>
<path d="M818 1416 l-208 -121 0 -247 0 -247 29 -20 c16 -12 31 -21 34 -21 3
0 87 -47 187 -105 l181 -106 214 123 215 123 -3 253 -2 253 -50 28 c-27 16
-121 69 -208 120 -86 50 -163 91 -170 90 -6 -1 -105 -56 -219 -123z"/>
</g>
</svg>
